<svg width="22" height="26" viewBox="0 0 22 26" fill="none" xmlns="http://www.w3.org/2000/svg">
<path d="M21.613 7.39983C21.6059 7.36687 21.6059 7.33278 21.613 7.29983C21.6069 7.27098 21.6069 7.24118 21.613 7.21233V7.09983L21.538 6.91233C21.5075 6.86117 21.4696 6.81482 21.4255 6.77483L21.313 6.67483H21.2505L16.3255 3.56233L11.6755 0.687326C11.5679 0.601989 11.4448 0.538314 11.313 0.499826H11.213C11.1013 0.481178 10.9872 0.481178 10.8755 0.499826H10.7505C10.6053 0.531942 10.4661 0.586784 10.338 0.662326L1.00051 6.47483L0.888013 6.56233L0.775512 6.66233L0.650512 6.74983L0.588013 6.82483L0.513012 7.01233V7.12483V7.19983C0.500871 7.28272 0.500871 7.36694 0.513012 7.44983V18.3623C0.512587 18.5748 0.566307 18.7838 0.669101 18.9697C0.771895 19.1556 0.920371 19.3122 1.10051 19.4248L10.4755 25.2248L10.663 25.2998H10.763C10.9745 25.3669 11.2015 25.3669 11.413 25.2998H11.513L11.7005 25.2248L21.0005 19.5123C21.1807 19.3997 21.3291 19.2431 21.4319 19.0572C21.5347 18.8713 21.5884 18.6623 21.588 18.4498V7.53733C21.588 7.53733 21.613 7.44983 21.613 7.39983ZM11.0005 3.21233L13.2255 4.58733L6.23801 8.91233L4.00051 7.53733L11.0005 3.21233ZM9.75051 21.9623L2.87551 17.7623V9.77483L9.75051 14.0248V21.9623ZM11.0005 11.8248L8.61301 10.3873L15.6005 6.04983L18.0005 7.53733L11.0005 11.8248ZM19.1255 17.7248L12.2505 21.9998V14.0248L19.1255 9.77483V17.7248Z" fill="#001E42"/>
</svg>
