<svg width="29" height="39" viewBox="0 0 29 39" fill="none" xmlns="http://www.w3.org/2000/svg">
<path d="M24.2751 15.6262V15.5387C24.2751 15.4513 24.2329 15.4077 24.1904 15.3202V15.2766C24.1482 15.1892 24.1057 15.1456 24.0636 15.0581L24.0214 15.0145C23.9792 14.971 23.9367 14.9271 23.8945 14.8835C23.8945 14.8835 23.8523 14.8835 23.8523 14.8399H23.8101L23.768 14.7963L12.6023 9.37856C12.3061 9.24751 11.9681 9.24751 11.6719 9.37856L0.549293 14.8836L0.507108 14.9271H0.464923C0.464923 14.9271 0.422739 14.9271 0.422739 14.9707L0.253702 15.1453C0.211517 15.1889 0.126851 15.2764 0.126851 15.3639V15.4074C0.0846666 15.451 0.0846659 15.5385 0.0421851 15.626V15.7134C0.0421851 15.757 0 15.8445 0 15.8881V15.9316V31.7915C0 32.1846 0.211517 32.5778 0.549878 32.7527L11.6725 38.8693C11.7147 38.9129 11.7572 38.9129 11.7993 38.9129C11.8415 38.9129 11.8415 38.9564 11.884 38.9564C11.9687 39 12.053 39 12.1377 39C12.2224 39 12.3067 39 12.3914 38.9564C12.4336 38.9564 12.4336 38.9129 12.4761 38.9129C12.5183 38.9129 12.5607 38.8693 12.6029 38.8693L23.7255 32.7527C24.0639 32.5781 24.2754 32.1846 24.2754 31.7915L24.2745 15.845V15.8015C24.3167 15.7576 24.3167 15.6704 24.2745 15.6265L24.2751 15.6262ZM12.1375 11.5631L20.9341 15.9322L17.72 17.7236L9.09258 13.0485L12.1375 11.5631ZM12.1375 20.7382L3.34089 15.8885L6.72426 14.2282L15.4363 18.9033L12.1375 20.7382ZM2.02986 17.6799L11.0802 22.6171V36.0302L2.02986 31.0931V17.6799ZM22.2028 31.0931L13.1948 36.0299V22.6168L22.2028 17.6796V31.0931Z" fill="#5AA9C5"/>
<path d="M28.3758 9.59677C27.3185 6.10141 24.9503 3.21772 21.8206 1.55762C18.6487 -0.14633 15.0538 -0.452323 11.6707 0.639952C9.04868 1.51369 6.84945 3.08657 5.20009 5.27112L4.60803 3.39256L2.57812 4.04781L3.9316 8.41691C4.05845 8.89752 4.48147 9.15962 4.94666 9.15962C5.07351 9.15962 5.15818 9.15962 5.28503 9.11603L9.68317 7.67423L9.04893 5.57714L7.27269 6.14522C10.5714 2.25672 16.1962 0.989832 20.8482 3.5236C23.5126 4.9654 25.4579 7.36849 26.3883 10.2958C27.2765 13.2231 27.0225 16.3688 25.6694 19.1214L27.5303 20.1262C29.1368 16.849 29.4327 13.0916 28.3754 9.59665L28.3758 9.59677Z" fill="#5AA9C5"/>
</svg>
