<svg width="23" height="26" viewBox="0 0 23 26" fill="none" xmlns="http://www.w3.org/2000/svg">
<path d="M22.875 16.75C22.8722 15.9997 22.6444 15.2674 22.221 14.6479C21.7976 14.0284 21.1981 13.5501 20.5 13.275L22.8375 4.52501C22.8863 4.33866 22.8914 4.14355 22.8524 3.9549C22.8134 3.76626 22.7313 3.58919 22.6125 3.43751C22.4911 3.29539 22.3393 3.18232 22.1684 3.1066C21.9975 3.03089 21.8118 2.99446 21.625 3.00001H4.5L4.0875 1.42501C4.01578 1.15865 3.85797 0.923493 3.63866 0.756181C3.41934 0.588869 3.15084 0.498801 2.875 0.500012H0.375V3.00001H1.9125L5.0125 14.575C5.08575 14.8477 5.24917 15.0876 5.47615 15.2555C5.70313 15.4235 5.9803 15.5097 6.2625 15.5H19.125C19.4565 15.5 19.7745 15.6317 20.0089 15.8661C20.2433 16.1005 20.375 16.4185 20.375 16.75C20.375 17.0815 20.2433 17.3995 20.0089 17.6339C19.7745 17.8683 19.4565 18 19.125 18H2.875C2.54348 18 2.22554 18.1317 1.99112 18.3661C1.7567 18.6005 1.625 18.9185 1.625 19.25C1.625 19.5815 1.7567 19.8995 1.99112 20.1339C2.22554 20.3683 2.54348 20.5 2.875 20.5H4.35C4.14442 21.0664 4.07836 21.674 4.15741 22.2714C4.23647 22.8688 4.45831 23.4383 4.80415 23.9317C5.14999 24.4251 5.60964 24.828 6.14419 25.1061C6.67874 25.3842 7.27243 25.5294 7.875 25.5294C8.47757 25.5294 9.07126 25.3842 9.60581 25.1061C10.1404 24.828 10.6 24.4251 10.9459 23.9317C11.2917 23.4383 11.5135 22.8688 11.5926 22.2714C11.6716 21.674 11.6056 21.0664 11.4 20.5H14.35C14.1629 21.0158 14.0912 21.5663 14.14 22.1128C14.1888 22.6593 14.357 23.1884 14.6326 23.6628C14.9082 24.1372 15.2845 24.5454 15.735 24.8585C16.1856 25.1716 16.6994 25.382 17.2401 25.4749C17.7808 25.5679 18.3354 25.541 18.8646 25.3962C19.3938 25.2514 19.8848 24.9923 20.3029 24.6371C20.7211 24.2819 21.0562 23.8392 21.2846 23.3404C21.5131 22.8415 21.6293 22.2987 21.625 21.75C21.6227 21.1042 21.4502 20.4704 21.125 19.9125C21.6595 19.5755 22.1002 19.1089 22.4062 18.556C22.7121 18.0031 22.8734 17.3819 22.875 16.75ZM17.9875 13H7.25L5.175 5.50001H20L17.9875 13ZM7.875 23C7.62777 23 7.3861 22.9267 7.18054 22.7894C6.97498 22.652 6.81476 22.4568 6.72015 22.2284C6.62554 22 6.60079 21.7486 6.64902 21.5061C6.69725 21.2637 6.8163 21.0409 6.99112 20.8661C7.16593 20.6913 7.38866 20.5723 7.63114 20.524C7.87361 20.4758 8.12495 20.5006 8.35335 20.5952C8.58176 20.6898 8.77699 20.85 8.91434 21.0555C9.05169 21.2611 9.125 21.5028 9.125 21.75C9.125 22.0815 8.9933 22.3995 8.75888 22.6339C8.52446 22.8683 8.20652 23 7.875 23ZM17.875 23C17.6278 23 17.3861 22.9267 17.1805 22.7894C16.975 22.652 16.8148 22.4568 16.7201 22.2284C16.6255 22 16.6008 21.7486 16.649 21.5061C16.6973 21.2637 16.8163 21.0409 16.9911 20.8661C17.1659 20.6913 17.3887 20.5723 17.6311 20.524C17.8736 20.4758 18.1249 20.5006 18.3534 20.5952C18.5818 20.6898 18.777 20.85 18.9143 21.0555C19.0517 21.2611 19.125 21.5028 19.125 21.75C19.125 22.0815 18.9933 22.3995 18.7589 22.6339C18.5245 22.8683 18.2065 23 17.875 23Z" fill="#001E42"/>
</svg>
