<svg width="41" height="25" viewBox="0 0 41 25" fill="none" xmlns="http://www.w3.org/2000/svg">
<path d="M0.998047 13.1465H10.8704V15.5544H0.998047V13.1465Z" fill="#5B249C"/>
<path d="M4.61133 9.29395H17.1323V11.7018H4.61133V9.29395Z" fill="#5B249C"/>
<path d="M7.25586 5.44238H20.8363V7.85027H7.25586V5.44238Z" fill="#5B249C"/>
<path d="M40.2005 13.6768L36.2998 5.53804C36.1073 5.10469 35.6736 4.86385 35.1922 4.86385H31.6768V1.20394C31.6768 0.529752 31.1471 0 30.4729 0H13.1361V2.40789H29.3171V18.4926C28.9798 18.8298 28.7393 19.2632 28.5465 19.6965H16.5552C16.0735 18.3481 14.7734 17.385 13.2322 17.385C11.3061 17.385 9.7168 18.9742 9.7168 20.9005C9.7168 22.8266 11.306 24.4159 13.2322 24.4159C14.7734 24.4159 16.0734 23.4528 16.5552 22.1044H28.5465C29.0282 23.4528 30.3282 24.4159 31.8694 24.4159C33.4107 24.4159 34.7107 23.4528 35.1924 22.1044H39.1415C39.8157 22.1044 40.3455 21.5747 40.3455 20.9005L40.3451 14.2065C40.3451 14.0137 40.2968 13.8693 40.2003 13.6768H40.2005ZM13.2321 22.0561C12.606 22.0561 12.1246 21.5743 12.1246 20.9485C12.1246 20.3224 12.6063 19.841 13.2321 19.841C13.8583 19.841 14.3397 20.3227 14.3397 20.9485C14.3397 21.5747 13.8583 22.0561 13.2321 22.0561ZM31.8692 22.0561C31.243 22.0561 30.7616 21.5743 30.7616 20.9485C30.7616 20.3224 31.2433 19.841 31.8692 19.841C32.4953 19.841 32.9767 20.3227 32.9767 20.9485C32.9767 21.5747 32.4953 22.0561 31.8692 22.0561ZM37.9372 19.7446H35.1921C34.7103 18.3962 33.4103 17.4331 31.8691 17.4331H31.7246V7.2718H34.4698L37.9372 14.4955L37.9372 19.7446Z" fill="#5B249C"/>
</svg>
