<svg width="25" height="25" viewBox="0 0 25 25" fill="none" xmlns="http://www.w3.org/2000/svg">
<path d="M23.959 13.0209V18.2292C23.959 18.5055 23.8492 18.7705 23.6539 18.9658C23.4585 19.1612 23.1936 19.2709 22.9173 19.2709H21.8757C21.8757 20.0997 21.5464 20.8946 20.9604 21.4806C20.3743 22.0667 19.5795 22.3959 18.7507 22.3959C17.9218 22.3959 17.127 22.0667 16.5409 21.4806C15.9549 20.8946 15.6257 20.0997 15.6257 19.2709H9.37565C9.37565 20.0997 9.04641 20.8946 8.46036 21.4806C7.87431 22.0667 7.07945 22.3959 6.25065 22.3959C5.42185 22.3959 4.62699 22.0667 4.04094 21.4806C3.45489 20.8946 3.12565 20.0997 3.12565 19.2709H2.08398C1.80772 19.2709 1.54276 19.1612 1.34741 18.9658C1.15207 18.7705 1.04232 18.5055 1.04232 18.2292V5.72925C1.04232 4.90045 1.37156 4.10559 1.95761 3.51954C2.54366 2.93349 3.33852 2.60425 4.16732 2.60425H13.5423C14.3711 2.60425 15.166 2.93349 15.752 3.51954C16.3381 4.10559 16.6673 4.90045 16.6673 5.72925V7.81258H18.7507C19.2358 7.81258 19.7143 7.92553 20.1482 8.1425C20.5821 8.35946 20.9596 8.67447 21.2507 9.06258L23.7507 12.3959C23.7811 12.4412 23.8056 12.4902 23.8236 12.5417L23.8861 12.6563C23.932 12.7725 23.9567 12.896 23.959 13.0209ZM7.29232 19.2709C7.29232 19.0649 7.23123 18.8635 7.11677 18.6922C7.00231 18.5209 6.83962 18.3874 6.64928 18.3085C6.45894 18.2297 6.24949 18.2091 6.04743 18.2493C5.84537 18.2895 5.65976 18.3887 5.51408 18.5343C5.3684 18.68 5.26919 18.8656 5.229 19.0677C5.18881 19.2698 5.20944 19.4792 5.28828 19.6695C5.36712 19.8599 5.50063 20.0226 5.67193 20.137C5.84323 20.2515 6.04463 20.3126 6.25065 20.3126C6.52692 20.3126 6.79187 20.2028 6.98722 20.0075C7.18257 19.8121 7.29232 19.5472 7.29232 19.2709ZM14.584 5.72925C14.584 5.45298 14.4742 5.18803 14.2789 4.99268C14.0835 4.79733 13.8186 4.68758 13.5423 4.68758H4.16732C3.89105 4.68758 3.6261 4.79733 3.43075 4.99268C3.2354 5.18803 3.12565 5.45298 3.12565 5.72925V17.1876H3.93815C4.23105 16.8653 4.58806 16.6079 4.98629 16.4317C5.38453 16.2555 5.81519 16.1645 6.25065 16.1645C6.68612 16.1645 7.11678 16.2555 7.51501 16.4317C7.91324 16.6079 8.27025 16.8653 8.56315 17.1876H14.584V5.72925ZM16.6673 11.9792H20.834L19.584 10.3126C19.487 10.1832 19.3611 10.0782 19.2165 10.0059C19.0719 9.93357 18.9124 9.89591 18.7507 9.89591H16.6673V11.9792ZM19.7923 19.2709C19.7923 19.0649 19.7312 18.8635 19.6168 18.6922C19.5023 18.5209 19.3396 18.3874 19.1493 18.3085C18.9589 18.2297 18.7495 18.2091 18.5474 18.2493C18.3454 18.2895 18.1598 18.3887 18.0141 18.5343C17.8684 18.68 17.7692 18.8656 17.729 19.0677C17.6888 19.2698 17.7094 19.4792 17.7883 19.6695C17.8671 19.8599 18.0006 20.0226 18.1719 20.137C18.3432 20.2515 18.5446 20.3126 18.7507 20.3126C19.0269 20.3126 19.2919 20.2028 19.4872 20.0075C19.6826 19.8121 19.7923 19.5472 19.7923 19.2709ZM21.8757 14.0626H16.6673V16.9584C17.2821 16.409 18.0891 16.1248 18.9124 16.1677C19.7358 16.2106 20.5089 16.5772 21.0632 17.1876H21.8757V14.0626Z" fill="#001E42"/>
</svg>
