<svg width="139" height="46" viewBox="0 0 139 46" fill="none" xmlns="http://www.w3.org/2000/svg">
<path d="M0.450929 16.6245L1.30683 16.6647C1.40161 16.6677 1.4964 16.6677 1.59118 16.6705L2.16273 16.6848C2.3523 16.6877 2.54186 16.6877 2.73142 16.6877C3.11055 16.6934 3.48967 16.6791 3.86593 16.6762C3.9607 16.6733 4.05549 16.6705 4.15027 16.6647L4.71896 16.6446L4.8597 16.6389L5.00043 16.6303C5.37668 16.6046 5.7558 16.5873 6.12918 16.55C6.31875 16.5328 6.50544 16.5184 6.69213 16.4983L7.25507 16.4382C7.34698 16.4266 7.44176 16.4181 7.53655 16.4066L7.81515 16.3664L8.37235 16.2919L8.92955 16.2029L9.20527 16.1599L9.481 16.1082L10.0353 16.0049L10.5839 15.8902L10.8567 15.8299C10.9487 15.8128 11.0377 15.7869 11.1296 15.7668L11.6753 15.6349C11.7643 15.6148 11.8534 15.589 11.9453 15.566L12.2153 15.4915C12.3934 15.4427 12.5772 15.3996 12.7495 15.3422L13.2723 15.1874L13.4015 15.1472L13.5393 15.1013L13.8151 15.0124L14.2286 14.8747L14.3435 14.8316L14.8692 14.6366L15.3948 14.4443C15.4838 14.4128 15.57 14.3784 15.6561 14.341L15.9175 14.2349L16.4374 14.0227L16.6987 13.9166C16.7849 13.8821 16.8711 13.842 16.9572 13.8046L17.9884 13.3485L19.0137 12.8637C19.1831 12.7862 19.3526 12.7002 19.5221 12.6142L20.0333 12.3617L20.2861 12.2326L20.4124 12.1695L20.5388 12.1035L21.0472 11.8395L21.5556 11.5785C21.7222 11.4896 21.8916 11.3978 22.0611 11.3088L22.5665 11.0363C22.736 10.9474 22.9026 10.8584 23.0721 10.7638L24.0831 10.213L26.1194 9.09708L27.1448 8.54054L27.6588 8.25941L28.1759 7.98401L28.6958 7.71149L28.9571 7.57379L29.2185 7.43896L30.2726 6.90251L31.341 6.38327C31.5162 6.29721 31.7029 6.21402 31.8838 6.12795L32.4381 5.8755L32.7139 5.75215L32.8518 5.68904L32.9839 5.63166L33.5181 5.40504L34.0552 5.1784L34.1213 5.15259L34.2103 5.1153L34.6239 4.95178L35.1754 4.73663L35.451 4.62761C35.5401 4.59032 35.6349 4.55877 35.7268 4.52147L36.8355 4.10838L37.9556 3.71824C38.0475 3.68667 38.1394 3.65225 38.2342 3.6207L39.0786 3.3453C39.2653 3.28218 39.4549 3.21908 39.6416 3.1617L40.2102 2.98671C40.5865 2.87196 40.9655 2.75435 41.3447 2.65107L42.2006 2.40723L42.3443 2.36706L42.4878 2.32977L43.6338 2.03142C46.7041 1.26547 49.8263 0.697473 52.9769 0.373309L53.5658 0.313066L53.7151 0.295852L53.8645 0.284378L54.7635 0.21266C54.9617 0.195448 55.1627 0.178236 55.3551 0.166761L56.5126 0.10078L56.6017 0.0950428L56.6763 0.0921741L56.8228 0.0864366L57.1186 0.0749617L57.7074 0.052012C58.1009 0.0319308 58.4944 0.0290623 58.8879 0.0175874C59.2814 0.0118496 59.6748 -0.00249343 60.0683 0.000375105H61.2488L62.4322 0.0175874L62.728 0.0233248C62.8256 0.0261934 62.9233 0.0319312 63.0209 0.0347997L64.2042 0.0806992C64.3019 0.0835684 64.3995 0.0893057 64.5001 0.0950428L64.7959 0.112255C65.1894 0.138074 65.5828 0.158155 65.9763 0.183973L67.1568 0.28151L67.4497 0.307328L67.7456 0.338883L68.9232 0.465107C69.1213 0.488056 69.3167 0.516743 69.512 0.542562L70.1007 0.622887L70.3937 0.66018L70.5402 0.68026L70.6868 0.706079L71.8586 0.895415C72.0539 0.924102 72.2491 0.964264 72.4416 1.00156L73.0275 1.11057L73.6077 1.22532L74.1879 1.35441L74.7709 1.48351L75.0581 1.54948C75.1558 1.56956 75.2534 1.59538 75.3482 1.6212L76.5 1.9138L76.6435 1.95397L77.0744 2.07732L77.6431 2.24371L77.9303 2.32691C78.0251 2.35559 78.1199 2.38141 78.2146 2.41296L79.3635 2.79164L79.6478 2.8863L79.9207 2.98671L81.0093 3.3912L81.0954 3.42275L81.1643 3.45145L81.3051 3.50595L81.5808 3.6207L82.1322 3.84732C82.3189 3.91904 82.497 4.00223 82.678 4.08256L83.2208 4.3264C83.5856 4.48131 83.9388 4.65917 84.2949 4.82843C84.4731 4.91448 84.654 4.99768 84.8292 5.08375L85.3548 5.35054C86.7593 6.0591 88.1265 6.8107 89.485 7.55945C90.8407 8.31105 92.1849 9.05692 93.5462 9.75401C93.8851 9.93474 94.2269 10.0983 94.5687 10.2704C94.7381 10.3536 94.9076 10.4396 95.0799 10.52L96.1139 11.0019C96.2863 11.0793 96.4586 11.154 96.6338 11.2286L97.1537 11.4552C97.3288 11.5326 97.5012 11.5957 97.6736 11.6646L98.1963 11.8682L98.4547 11.9715C98.5438 12.0031 98.6357 12.0346 98.7276 12.0662L99.2762 12.2584L99.549 12.3531L99.6869 12.4018C99.7128 12.4104 99.6898 12.4018 99.7041 12.4076L99.7357 12.4162L99.8047 12.4391C100.508 12.6658 101.235 12.8493 101.97 13.01C103.444 13.3314 104.957 13.5522 106.485 13.7588C107.249 13.862 108.019 13.9624 108.788 14.0715L109.079 14.1116L109.369 14.1575C109.564 14.1862 109.762 14.212 109.949 14.2435L111.098 14.43C112.617 14.671 114.148 14.8919 115.679 15.1243C118.744 15.589 121.823 16.0881 124.852 16.8512C126.367 17.2356 127.868 17.6803 129.333 18.2454C130.066 18.5266 130.789 18.8364 131.496 19.1806L131.76 19.3125L132.021 19.4474C132.197 19.5392 132.369 19.6367 132.542 19.7285C132.714 19.829 132.884 19.9236 133.052 20.0269C133.22 20.133 133.389 20.2335 133.556 20.3424L133.802 20.5031L134.043 20.6724C134.207 20.7843 134.365 20.9047 134.523 21.0223C134.603 21.0797 134.681 21.1428 134.759 21.2059L134.989 21.3896L135.215 21.5817C135.29 21.6477 135.368 21.7108 135.439 21.7797L135.657 21.9776L135.712 22.0292L135.87 22.1842C135.94 22.2559 136.014 22.3247 136.08 22.3964L136.284 22.6116C136.319 22.6488 136.352 22.6833 136.387 22.7206L136.485 22.8325L136.678 23.0563L136.864 23.2886C136.927 23.366 136.991 23.4436 137.045 23.5238L137.223 23.7619C137.252 23.8021 137.28 23.8423 137.307 23.8853L137.473 24.132C137.501 24.1722 137.528 24.2152 137.553 24.2583L137.709 24.5107C137.734 24.5537 137.76 24.5939 137.784 24.6369L137.998 25.0271L138.131 25.2938C138.174 25.3828 138.219 25.4688 138.257 25.5607L138.377 25.8332L138.407 25.9021L138.432 25.9708L138.487 26.1085C138.522 26.2003 138.559 26.2922 138.59 26.384L138.685 26.668L138.734 26.8056C138.748 26.8544 138.76 26.9032 138.774 26.9491L138.858 27.236L138.878 27.3076C138.883 27.3307 138.889 27.3536 138.894 27.3794L138.996 27.804C139.016 27.8872 138.966 27.9704 138.883 27.9933C138.798 28.0192 138.711 27.9675 138.685 27.8843L138.608 27.6032L138.57 27.4626C138.562 27.4396 138.555 27.4167 138.55 27.3938L138.527 27.3249L138.439 27.0552C138.424 27.0094 138.409 26.9663 138.395 26.9204L138.344 26.7855L138.243 26.5188C138.206 26.4298 138.168 26.3438 138.131 26.2548L138.073 26.1258L138.045 26.0598L138.016 25.9967L137.89 25.7385C137.849 25.6525 137.804 25.5693 137.757 25.4831L137.622 25.2336L137.476 24.9898L137.404 24.8664C137.381 24.8262 137.353 24.789 137.327 24.7488L137.169 24.5107C137.145 24.4705 137.117 24.4333 137.089 24.3931L136.921 24.1636C136.896 24.1234 136.867 24.0861 136.836 24.0489L136.66 23.825C136.603 23.7505 136.54 23.6787 136.477 23.607L136.292 23.3948L136.1 23.1854L136.003 23.0821C135.968 23.0477 135.933 23.0132 135.902 22.9816L135.699 22.7808C135.632 22.7149 135.561 22.6518 135.491 22.5887L135.388 22.4911L135.333 22.4424L135.278 22.3994L135.064 22.2129C134.992 22.1498 134.917 22.0924 134.842 22.035L134.621 21.8571L134.391 21.6878C134.317 21.6305 134.239 21.5731 134.161 21.5215C134.006 21.4125 133.852 21.3034 133.69 21.2031L133.452 21.0482L133.208 20.9019C133.047 20.8014 132.877 20.7096 132.714 20.6149C132.631 20.5662 132.547 20.5232 132.464 20.4773L132.214 20.3453C132.041 20.2592 131.872 20.1732 131.703 20.09L131.444 19.9666L131.315 19.9064L131.183 19.849C130.488 19.5364 129.778 19.2581 129.057 19.0085C127.613 18.5065 126.131 18.1192 124.631 17.7922C123.135 17.4651 121.618 17.2041 120.097 16.9774C118.574 16.7479 117.046 16.5558 115.512 16.3721C113.979 16.1886 112.439 16.0136 110.897 15.8128L109.746 15.6607C109.556 15.6349 109.366 15.6148 109.177 15.5918L108.895 15.5574L108.608 15.5259C107.844 15.4398 107.074 15.3623 106.304 15.2821C105.531 15.1989 104.756 15.1127 103.978 15.0124C103.202 14.9091 102.421 14.7886 101.64 14.6423C100.862 14.4931 100.08 14.321 99.3049 14.0944L99.2303 14.0743L99.1957 14.0629C99.1872 14.0599 99.1383 14.0456 99.144 14.0484L99.0062 14.0026L98.7276 13.9166L98.1762 13.7387C98.0842 13.71 97.9923 13.6813 97.8975 13.6497L97.6161 13.5493L97.0473 13.3457C96.6654 13.2137 96.3035 13.0617 95.933 12.9154C95.7491 12.8407 95.5653 12.7691 95.3844 12.6944L94.2987 12.2239C94.1178 12.1437 93.9397 12.0605 93.7617 11.9773C93.4055 11.8109 93.0464 11.6502 92.6961 11.4752C91.2829 10.7953 89.8985 10.0724 88.5257 9.361C87.1557 8.64669 85.7886 7.94386 84.4128 7.28691L83.8957 7.04307C83.7235 6.95989 83.5511 6.88529 83.3788 6.80784C83.0312 6.65293 82.6865 6.48941 82.3362 6.34884L81.8135 6.13082C81.6411 6.05624 81.4688 5.98165 81.2907 5.91854L80.7651 5.71486L80.5009 5.61446L80.3687 5.56569L80.3027 5.53986C80.3027 5.53986 80.3027 5.53986 80.3027 5.53699C80.3027 5.53986 80.2999 5.53987 80.2884 5.53413L80.2538 5.52266L79.1567 5.14685L78.881 5.04932L78.0796 4.80834L77.5483 4.64482C77.4592 4.61614 77.3674 4.59606 77.2755 4.57024L77.0026 4.49565L76.184 4.27763L76.0461 4.24033L75.9111 4.20878L74.8082 3.95059C74.7164 3.92764 74.6245 3.90469 74.5325 3.88749L74.2539 3.83011L73.6996 3.71824L73.1424 3.60635L72.028 3.41702C71.8413 3.38546 71.6546 3.35103 71.4679 3.32808L70.3449 3.17031L70.2042 3.15023L70.0635 3.13301L69.7791 3.10146L69.2162 3.03834C69.0266 3.01826 68.84 2.99244 68.6533 2.97524L67.5216 2.8777L67.2372 2.85475L66.9529 2.83754L65.8184 2.76582C65.4421 2.7486 65.0631 2.74 64.681 2.72279L64.3995 2.71418C64.3048 2.70845 64.21 2.70557 64.1152 2.70557L62.975 2.69123C62.8801 2.69123 62.7854 2.69123 62.6906 2.69123L61.266 2.70557L60.1287 2.74287C59.7495 2.75147 59.3704 2.77442 58.9884 2.7945C58.6093 2.81459 58.2302 2.8318 57.8511 2.86335L56.728 2.94367L55.5734 3.05556C55.3781 3.06991 55.1971 3.09572 55.0104 3.11581L54.4533 3.18178L54.1746 3.21334L54.0368 3.23055L53.8961 3.25063L53.3332 3.32808C50.3403 3.74119 47.3763 4.38952 44.4581 5.18415C42.9991 5.58576 41.5516 6.03042 40.1126 6.5095L39.5754 6.69022L39.3055 6.77915L39.0384 6.87382L37.9642 7.25249L36.8986 7.64837C36.8096 7.67993 36.7206 7.71149 36.6315 7.74591L36.3673 7.84919L35.8359 8.05573L35.5688 8.15613L35.4367 8.20778L35.4051 8.21925C35.4022 8.22212 35.3621 8.23933 35.3937 8.22498L35.3247 8.2508L34.7905 8.4717L34.1183 8.74709L33.9891 8.80446L33.7364 8.91635L33.228 9.13724C33.0586 9.21182 32.892 9.28354 32.7168 9.36387L31.6886 9.84007L30.6603 10.3335L30.4018 10.4569L30.1462 10.5831L29.1179 11.0937L28.601 11.3519L27.5699 11.8711C24.8183 13.2653 22.0151 14.6939 19.0654 15.8787C17.5862 16.4668 16.0726 16.9832 14.5217 17.402L14.2402 17.4766L14.1023 17.5139L13.9501 17.5483L13.3527 17.6889C13.1516 17.7376 12.9564 17.775 12.7582 17.8151L12.4623 17.8725C12.3647 17.8925 12.2669 17.9155 12.1693 17.9327L11.5748 18.0332C11.4772 18.0503 11.3794 18.0676 11.279 18.0819L10.9802 18.1249L10.3857 18.2081L9.79119 18.277L9.49248 18.3085L8.59924 18.3859C8.40106 18.4003 8.20288 18.409 8.00184 18.4204L7.706 18.4376C7.60548 18.4434 7.50496 18.4462 7.4073 18.4491L6.80989 18.4691C6.61171 18.4749 6.41353 18.4721 6.21248 18.4749C5.81612 18.4807 5.41976 18.4691 5.02341 18.4634L4.87406 18.4577L4.72757 18.452L4.13303 18.4261C4.03538 18.4204 3.93486 18.4175 3.8372 18.409C3.44084 18.3803 3.04736 18.3602 2.65387 18.32C2.53611 18.3085 2.41835 18.2971 2.3006 18.2856C2.37815 18.3859 2.45857 18.4892 2.53038 18.5954C2.76876 18.9482 2.97555 19.324 3.14502 19.717C3.3116 20.1129 3.43511 20.5261 3.50978 20.9477C3.54712 21.1601 3.57009 21.3723 3.58446 21.5846C3.59595 21.7998 3.5902 22.012 3.57584 22.2244C3.56148 22.4338 3.53275 22.6432 3.49255 22.8497C3.47531 22.953 3.44946 23.0534 3.42648 23.1538C3.39777 23.2542 3.37479 23.3574 3.34032 23.455C3.28862 23.6214 3.2283 23.782 3.16512 23.9398C3.27139 23.8509 3.38053 23.7619 3.49255 23.6759C3.56722 23.6185 3.6419 23.564 3.71657 23.5067C3.79125 23.4522 3.8688 23.3948 3.94348 23.3403L4.05836 23.2571C4.0957 23.2284 4.13303 23.2026 4.17325 23.1739L4.40014 23.0103L4.51503 22.93L4.63279 22.8497C4.71034 22.7981 4.78789 22.7436 4.86543 22.692C5.02053 22.5887 5.1785 22.4882 5.33073 22.3907C5.52891 22.2674 5.72421 22.1526 5.91952 22.0407C6.13206 21.86 6.35322 21.6822 6.58586 21.5043C6.91615 21.2518 7.26656 20.9994 7.63133 20.7469C7.72324 20.6838 7.81802 20.6207 7.90993 20.5605C8.0047 20.4974 8.09949 20.4371 8.19427 20.374C8.29193 20.3137 8.38957 20.2506 8.48723 20.1904C8.58775 20.1302 8.68829 20.0699 8.78881 20.0096C9.59588 19.5277 10.4748 19.0687 11.4255 18.6614C11.8993 18.4577 12.3905 18.2627 12.896 18.0819C13.4015 17.8983 13.9214 17.7319 14.4556 17.5742C15.5211 17.2615 16.6413 17.0033 17.7959 16.7852C18.3732 16.6762 18.9591 16.5815 19.5537 16.4926C20.1511 16.4037 20.7513 16.3263 21.3631 16.2574C21.6675 16.2201 21.9749 16.1886 22.2822 16.157C22.4373 16.1426 22.5953 16.1283 22.7504 16.1111C22.9055 16.0968 23.0576 16.0853 23.2128 16.0709L23.4455 16.0508C23.523 16.048 23.6034 16.0423 23.6838 16.0365C23.8418 16.025 24.0026 16.0136 24.1634 16.0049C24.4794 15.9877 24.8011 15.9676 25.1227 15.9591C25.7633 15.9332 26.4095 15.9246 27.0643 15.9304C27.2252 15.9304 27.389 15.9332 27.5526 15.9332C27.7163 15.9361 27.8801 15.9418 28.0437 15.9447C28.2075 15.9476 28.3712 15.9561 28.5378 15.9619C28.7015 15.9676 28.8652 15.9734 29.0318 15.982C30.3472 16.0451 31.677 16.1599 33.0069 16.3148C35.6665 16.6189 38.3232 17.0664 40.9627 17.4221C41.6234 17.5081 42.2811 17.5913 42.9445 17.6659C43.608 17.7406 44.2744 17.8122 44.9378 17.8869C45.6013 17.9585 46.2619 18.0274 46.9224 18.0933C47.5802 18.1622 48.2379 18.2253 48.8956 18.2856C51.5179 18.5294 54.1 18.7159 56.5988 18.822C59.1004 18.9311 61.5159 18.9626 63.8078 18.9052C64.9539 18.8736 66.0683 18.8249 67.1425 18.756C68.2167 18.6843 69.2563 18.5925 70.2502 18.4864C71.2439 18.3774 72.1917 18.2454 73.0964 18.1077C73.9955 17.9701 74.8484 17.8122 75.6469 17.6544C76.4425 17.491 77.1864 17.3216 77.8728 17.1553C78.0423 17.1122 78.2118 17.0692 78.3754 17.0262C78.5392 16.9832 78.6971 16.9402 78.8551 16.9C79.0102 16.857 79.1625 16.8168 79.3118 16.7738C79.4611 16.7308 79.6076 16.6934 79.7455 16.6504C80.027 16.5672 80.2941 16.4898 80.5439 16.4123C80.6675 16.3721 80.791 16.3377 80.9059 16.3004C81.0236 16.2632 81.1356 16.2258 81.2447 16.1914C81.463 16.1225 81.6612 16.0508 81.8451 15.9906C82.0288 15.9304 82.1926 15.8701 82.3419 15.8185C82.4913 15.7668 82.6234 15.721 82.7354 15.6808C82.8474 15.6378 82.9422 15.6034 83.0197 15.5775C83.172 15.5202 83.2524 15.4915 83.2524 15.4915C83.2524 15.4915 83.1777 15.5287 83.0312 15.6004C82.8847 15.6722 82.6664 15.7812 82.3821 15.9161C82.2385 15.982 82.0777 16.0594 81.9025 16.1369C81.7244 16.2172 81.532 16.3062 81.3194 16.395C81.216 16.441 81.1069 16.4869 80.9949 16.5357C80.88 16.5845 80.7622 16.6332 80.6387 16.682C80.3975 16.7852 80.1361 16.8857 79.8604 16.9947C78.7575 17.4193 77.399 17.8897 75.8077 18.3314C75.0122 18.5553 74.1621 18.7675 73.2573 18.9683C72.3525 19.172 71.3962 19.3557 70.3937 19.5249C68.3861 19.8605 66.1946 20.1187 63.871 20.2765C61.5475 20.4342 59.0889 20.4916 56.5528 20.4515C54.0138 20.4142 51.3973 20.2822 48.7434 20.0785C48.0828 20.0269 47.4165 19.9724 46.7502 19.9121C46.0838 19.8519 45.4174 19.7888 44.7482 19.7228C44.4151 19.6913 44.079 19.6568 43.743 19.6224C43.4098 19.588 43.0767 19.5507 42.7406 19.5163L42.2351 19.4588C42.0685 19.4417 41.8991 19.4216 41.7296 19.4015C41.3936 19.3613 41.0546 19.3183 40.7215 19.2753C38.0302 18.9224 35.385 18.4663 32.7886 18.1479C32.1395 18.0676 31.4932 17.9958 30.8498 17.9327C30.2094 17.8725 29.5688 17.818 28.9312 17.7806C27.6618 17.7004 26.4037 17.6688 25.1688 17.6918C24.8585 17.6946 24.5513 17.7061 24.2467 17.7147C24.0946 17.7205 23.9423 17.729 23.793 17.7348C23.7155 17.7406 23.6407 17.7434 23.566 17.7462C23.4885 17.7491 23.4109 17.7549 23.3363 17.7605C23.1812 17.7692 23.0261 17.7778 22.8739 17.7864C22.7216 17.7979 22.5723 17.8065 22.4258 17.818C22.2736 17.8294 22.1214 17.8409 21.972 17.8524C21.8226 17.8638 21.6733 17.8753 21.524 17.8869C20.9237 17.9356 20.3349 17.99 19.7547 18.0561C19.1745 18.1164 18.603 18.1909 18.0401 18.2712C17.48 18.3515 16.9285 18.4434 16.3857 18.5438C15.8457 18.6441 15.3172 18.756 14.8002 18.8794C13.7662 19.1261 12.7811 19.4158 11.8563 19.7514C10.9314 20.0872 10.064 20.4658 9.25984 20.8731C8.86061 21.0769 8.47287 21.2863 8.10236 21.4985C7.73473 21.7137 7.38145 21.9318 7.04253 22.1526C6.70362 22.3735 6.37907 22.5915 6.07174 22.8124C5.76443 23.0333 5.47146 23.2513 5.19574 23.4693C4.91714 23.6817 4.65577 23.8939 4.40589 24.1005C4.18761 24.2812 3.98368 24.4562 3.78838 24.6254C3.75966 24.6541 3.73093 24.6857 3.70222 24.7144C3.58158 24.8377 3.4667 24.961 3.34894 25.0816C3.11342 25.3197 2.88365 25.5463 2.66536 25.7614C2.55622 25.8705 2.45282 25.9766 2.3523 26.0828C2.30347 26.1316 2.25178 26.1832 2.20295 26.2347C2.15699 26.2835 2.10816 26.3352 2.06221 26.384C1.87264 26.579 1.70894 26.7626 1.55384 26.9233C1.5165 26.9634 1.48203 27.0036 1.44757 27.0438C1.4131 27.0811 1.37864 27.1213 1.34704 27.1557C1.28098 27.2274 1.2178 27.2933 1.16323 27.3508C1.05696 27.474 0.970789 27.5687 0.910475 27.6347C0.847287 27.6978 0.812821 27.7322 0.812821 27.7322C0.801333 27.7437 0.7841 27.7495 0.766866 27.7467C0.741017 27.7409 0.726656 27.7151 0.7324 27.6892C0.7324 27.6892 0.741017 27.6404 0.763994 27.5544C0.786971 27.4684 0.821437 27.3421 0.873137 27.1814C0.901858 27.1012 0.936324 27.018 0.97079 26.9233C1.011 26.8286 1.04834 26.7254 1.09716 26.6221C1.14886 26.5159 1.20343 26.4069 1.26088 26.2893C1.32119 26.1716 1.39012 26.054 1.4648 25.9307C1.49927 25.8676 1.5366 25.8045 1.57682 25.7414C1.61702 25.6782 1.66011 25.618 1.70319 25.552C1.79222 25.4258 1.87839 25.291 1.98179 25.1648C2.05072 25.073 2.1254 24.984 2.20007 24.8951C2.28049 24.7259 2.3523 24.5537 2.41835 24.3816C2.43559 24.3357 2.45282 24.2927 2.46718 24.2468L2.51314 24.112L2.53611 24.0459L2.55622 23.98L2.59643 23.8451C2.64526 23.6644 2.69121 23.4837 2.71993 23.3001C2.74004 23.2083 2.74866 23.1194 2.76302 23.0276C2.77163 22.9358 2.78312 22.8439 2.78886 22.7551C2.80323 22.5714 2.80323 22.3907 2.79461 22.2099C2.79174 22.1182 2.78312 22.0292 2.77451 21.9403C2.76302 21.8514 2.75153 21.7624 2.73717 21.6764C2.70558 21.4985 2.66536 21.3265 2.61653 21.1543C2.56484 20.9851 2.50452 20.8187 2.43272 20.6551C2.36379 20.4916 2.28624 20.3338 2.20007 20.1789C2.02487 19.8662 1.82095 19.5765 1.59118 19.3011C1.36141 19.0286 1.10579 18.7733 0.835798 18.538C0.697935 18.4233 0.56007 18.3114 0.416463 18.2052C0.347531 18.1536 0.272854 18.102 0.201052 18.0533C0.166585 18.0302 0.129248 18.0073 0.0947812 17.9844L0.0430823 17.95L0.0172329 17.9356C0.0114882 17.9327 0 17.9269 0 17.9269L0.450929 16.6245Z" fill="#DB4C3E"/>
<path d="M23.7486 41.9746H7V38.6483L16.3657 30.1737H7.06328V26.2119H23.6643V29.5169L13.8977 37.9703H23.7486V41.9746ZM35.7656 40.428C35.3438 40.88 34.8867 41.2402 34.3946 41.5085C33.5227 41.9746 32.468 42.2076 31.2305 42.2076H30.8719C29.3109 42.2076 28.1155 41.8404 27.2859 41.1059C26.9062 40.767 26.6179 40.3715 26.4211 39.9195C26.2241 39.4534 26.1257 38.959 26.1257 38.4364V38.3517C26.1257 37.2359 26.5124 36.4096 27.2859 35.8729C28.0875 35.2938 29.4937 34.9195 31.5047 34.75L34.7743 34.4958C35.0977 34.4675 35.3227 34.3969 35.4493 34.2839C35.5759 34.1709 35.6391 34.0085 35.6391 33.7966V33.7754C35.6391 33.4364 35.5195 33.1963 35.2805 33.0551C34.9289 32.8432 34.3172 32.7373 33.4454 32.7373H33.3821C32.4961 32.7373 31.8914 32.8856 31.568 33.1822C31.3429 33.3941 31.2305 33.6412 31.2305 33.9237H26.4211V33.9025C26.4211 33.281 26.5476 32.7302 26.8007 32.25C27.1804 31.5437 27.7922 31 28.6359 30.6186C29.7609 30.1385 31.2305 29.8983 33.0446 29.8983H33.7196C36.4196 29.8983 38.2899 30.3573 39.3306 31.2754C39.7243 31.6285 39.9845 32.024 40.1111 32.4619C40.2517 32.8997 40.322 33.387 40.322 33.9237V37.6949C40.322 38.0056 40.3712 38.2246 40.4697 38.3517C40.5681 38.4647 40.7719 38.5212 41.0814 38.5212H41.6298V41.9746H37.7485C37.2282 41.9746 36.7782 41.798 36.3985 41.4449C36.1032 41.1907 35.8922 40.8517 35.7656 40.428ZM32.686 39.4322C33.6703 39.4322 34.4368 39.1709 34.9852 38.6483C35.2102 38.4364 35.3719 38.2034 35.4704 37.9492C35.5828 37.6808 35.6391 37.4266 35.6391 37.1864V36.4449C35.1469 36.572 34.3594 36.7274 33.2766 36.911C32.3343 37.0664 31.7086 37.2359 31.3992 37.4195C31.0617 37.6031 30.893 37.8785 30.893 38.2458V38.2881C30.893 38.6412 31.0406 38.9237 31.336 39.1356C31.6313 39.3334 32.0812 39.4322 32.686 39.4322ZM43.8562 30.1737H48.6235V31.6568C48.9891 31.2613 49.5094 30.9082 50.1844 30.5975C51.1126 30.1596 52.1673 29.9407 53.3485 29.9407H53.5595C55.6689 29.9407 57.258 30.5622 58.3267 31.8051C58.7626 32.3418 59.0861 32.9632 59.297 33.6695C59.508 34.3615 59.6134 35.089 59.6134 35.8517V36.2119C59.6134 36.9181 59.5009 37.6243 59.2759 38.3305C59.065 39.0226 58.7346 39.6441 58.2845 40.1949C57.2158 41.5368 55.5985 42.2076 53.4329 42.2076H53.2009C52.0336 42.2076 51 41.9887 50.1 41.5508C49.5798 41.3249 49.0946 41 48.6446 40.5763V46H43.8562V30.1737ZM54.6353 36.0212C54.6353 35.3008 54.4454 34.6935 54.0657 34.1992C53.5595 33.5776 52.786 33.2669 51.7454 33.2669H51.5766C50.5501 33.2669 49.7766 33.5776 49.2563 34.1992C49.0453 34.4534 48.8837 34.7429 48.7711 35.0678C48.6727 35.3927 48.6235 35.7105 48.6235 36.0212V36.1271C48.6235 36.4378 48.6727 36.7556 48.7711 37.0805C48.8837 37.4054 49.0453 37.6949 49.2563 37.9492C49.7625 38.5565 50.5359 38.8602 51.5766 38.8602H51.7454C52.786 38.8602 53.5595 38.5424 54.0657 37.9068C54.4454 37.4124 54.6353 36.8122 54.6353 36.1059V36.0212ZM70.5612 42.25C68.1143 42.25 66.1948 41.9393 64.8026 41.3178C63.6635 40.8093 62.8479 40.1031 62.3557 39.1992C62.0182 38.5777 61.8494 37.822 61.8494 36.9322V36.7415H67.2917C67.3198 37.2641 67.5166 37.6878 67.8823 38.0127C68.4589 38.5353 69.4151 38.7966 70.7511 38.7966H70.8777C72.2417 38.7966 73.2051 38.62 73.7675 38.2669C73.9925 38.1257 74.1402 37.9632 74.2105 37.7797C74.2949 37.5961 74.3371 37.3842 74.3371 37.1441C74.3371 36.9181 74.2949 36.7274 74.2105 36.572C74.1261 36.4025 73.9785 36.2542 73.7675 36.1271C73.2894 35.8446 72.4526 35.6963 71.2573 35.6822L69.1058 35.6186C66.5183 35.5339 64.6549 35.0325 63.5158 34.1144C62.5315 33.3376 62.0393 32.2712 62.0393 30.9153V30.7246C62.0393 29.2556 62.5737 28.1398 63.6424 27.3771C64.9643 26.459 67.1651 26 70.2448 26H71.0464C74.323 26 76.6223 26.5226 77.9441 27.5678C78.9004 28.3305 79.3785 29.4039 79.3785 30.7881V30.9576H74.0207C73.9785 30.7458 73.9152 30.5551 73.8308 30.3856C73.7464 30.2161 73.5988 30.0537 73.3878 29.8983C72.8534 29.531 71.9605 29.3475 70.7089 29.3475H70.5191C69.2816 29.3475 68.4097 29.4675 67.9034 29.7076C67.6784 29.8207 67.5166 29.9548 67.4182 30.1102C67.3339 30.2514 67.2917 30.428 67.2917 30.6398C67.2917 31.0495 67.4815 31.3531 67.8612 31.5508C68.3253 31.8334 69.1058 31.9817 70.2026 31.9958L72.4175 32.0593C75.1316 32.1441 77.0722 32.6102 78.2395 33.4576C78.7457 33.839 79.1043 34.3051 79.3153 34.8559C79.5402 35.3927 79.6528 36.0212 79.6528 36.7415V36.9958C79.6528 37.9563 79.47 38.7683 79.1043 39.4322C78.6121 40.2937 77.7894 40.9576 76.6363 41.4237C75.2723 41.9746 73.4371 42.25 71.1308 42.25H70.5612ZM97.3935 37.2076C97.3935 37.9703 97.2387 38.6695 96.9294 39.3051C96.5215 40.1808 95.8396 40.8658 94.8833 41.3602C93.688 41.9817 92.1481 42.2924 90.2637 42.2924H89.2301C86.4457 42.2924 84.4417 41.5649 83.2183 40.1102C82.7402 39.531 82.3956 38.9025 82.1847 38.2246C81.9878 37.5325 81.8894 36.8475 81.8894 36.1695V35.8729C81.8894 35.1949 81.9878 34.5169 82.1847 33.839C82.3956 33.161 82.7402 32.5466 83.2183 31.9958C84.4699 30.5692 86.4668 29.8559 89.209 29.8559H90.116C92.0285 29.8559 93.6106 30.1596 94.8622 30.7669C95.8325 31.2471 96.5215 31.911 96.9294 32.7585C97.2387 33.3941 97.3935 34.0649 97.3935 34.7712V34.7924H92.3942C92.352 34.4393 92.1832 34.1215 91.8879 33.839C91.3957 33.3729 90.6926 33.1398 89.7785 33.1398H89.5887C88.6184 33.1398 87.9012 33.4435 87.4371 34.0508C87.0574 34.531 86.8676 35.1737 86.8676 35.9788V36C86.8676 36.791 87.0645 37.4548 87.4582 37.9915C87.9222 38.6412 88.6465 38.9661 89.6309 38.9661H89.8207C90.791 38.9661 91.4942 38.7119 91.9301 38.2034C92.0848 38.0198 92.1973 37.8361 92.2676 37.6525C92.352 37.469 92.3942 37.3207 92.3942 37.2076H97.3935ZM109.059 40.428C108.637 40.88 108.181 41.2402 107.688 41.5085C106.816 41.9746 105.761 42.2076 104.524 42.2076H104.165C102.604 42.2076 101.409 41.8404 100.579 41.1059C100.2 40.767 99.9113 40.3715 99.7144 39.9195C99.5176 39.4534 99.4191 38.959 99.4191 38.4364V38.3517C99.4191 37.2359 99.8059 36.4096 100.579 35.8729C101.381 35.2938 102.787 34.9195 104.798 34.75L108.068 34.4958C108.392 34.4675 108.616 34.3969 108.743 34.2839C108.869 34.1709 108.933 34.0085 108.933 33.7966V33.7754C108.933 33.4364 108.813 33.1963 108.574 33.0551C108.223 32.8432 107.611 32.7373 106.739 32.7373H106.676C105.79 32.7373 105.185 32.8856 104.861 33.1822C104.637 33.3941 104.524 33.6412 104.524 33.9237H99.7144V33.9025C99.7144 33.281 99.841 32.7302 100.094 32.25C100.474 31.5437 101.086 31 101.929 30.6186C103.054 30.1385 104.524 29.8983 106.338 29.8983H107.013C109.713 29.8983 111.583 30.3573 112.624 31.2754C113.017 31.6285 113.278 32.024 113.405 32.4619C113.545 32.8997 113.616 33.387 113.616 33.9237V37.6949C113.616 38.0056 113.665 38.2246 113.763 38.3517C113.861 38.4647 114.066 38.5212 114.375 38.5212H114.923V41.9746H111.042C110.522 41.9746 110.072 41.798 109.692 41.4449C109.397 41.1907 109.186 40.8517 109.059 40.428ZM105.979 39.4322C106.964 39.4322 107.73 39.1709 108.279 38.6483C108.503 38.4364 108.666 38.2034 108.764 37.9492C108.877 37.6808 108.933 37.4266 108.933 37.1864V36.4449C108.44 36.572 107.653 36.7274 106.57 36.911C105.628 37.0664 105.002 37.2359 104.693 37.4195C104.355 37.6031 104.186 37.8785 104.186 38.2458V38.2881C104.186 38.6412 104.334 38.9237 104.629 39.1356C104.925 39.3334 105.375 39.4322 105.979 39.4322ZM117.15 30.1737H121.896V32.0381C122.332 31.5014 122.874 31.0565 123.52 30.7034C124.533 30.1525 125.622 29.8771 126.79 29.8771H127.001C127.831 29.8771 128.562 30.0042 129.194 30.2585C129.827 30.5127 130.362 30.8588 130.798 31.2966C131.191 31.7063 131.486 32.1793 131.684 32.7161C131.895 33.2387 132 33.7825 132 34.3475V41.9746H127.212V35.9576C127.212 35.2232 127.014 34.6512 126.621 34.2415C126.143 33.7613 125.482 33.5212 124.638 33.5212C123.766 33.5212 123.091 33.7825 122.613 34.3051C122.163 34.7995 121.938 35.4068 121.938 36.1271V41.9746H117.15V30.1737Z" fill="#001E42"/>
</svg>
