<svg width="25" height="25" viewBox="0 0 25 25" fill="none" xmlns="http://www.w3.org/2000/svg">
<path d="M12.5013 12.5002C11.3555 12.5002 10.418 11.5627 10.418 10.4168C10.418 9.271 11.3555 8.3335 12.5013 8.3335C13.6471 8.3335 14.5846 9.271 14.5846 10.4168C14.5846 11.5627 13.6471 12.5002 12.5013 12.5002ZM18.7513 10.6252C18.7513 6.84391 15.9909 4.16683 12.5013 4.16683C9.01172 4.16683 6.2513 6.84391 6.2513 10.6252C6.2513 13.0627 8.28255 16.2918 12.5013 20.146C16.7201 16.2918 18.7513 13.0627 18.7513 10.6252ZM12.5013 2.0835C16.8763 2.0835 20.8346 5.43766 20.8346 10.6252C20.8346 14.0835 18.0534 18.1772 12.5013 22.9168C6.94922 18.1772 4.16797 14.0835 4.16797 10.6252C4.16797 5.43766 8.1263 2.0835 12.5013 2.0835Z" fill="#001E42"/>
</svg>
