<svg width="24" height="24" viewBox="0 0 24 24" fill="none" xmlns="http://www.w3.org/2000/svg">
<rect width="24" height="24" fill="white" fill-opacity="0.01"/>
<path fill-rule="evenodd" clip-rule="evenodd" d="M16.4362 15.0849L20.3762 19.0949C20.5527 19.2857 20.648 19.5377 20.6419 19.7975C20.6358 20.0573 20.5288 20.3046 20.3435 20.4869C20.1583 20.6691 19.9093 20.7721 19.6494 20.774C19.3895 20.7759 19.1391 20.6765 18.9512 20.4969L15.0132 16.4909C13.4938 17.6356 11.5961 18.16 9.70452 17.9581C7.81291 17.7562 6.0687 16.8431 4.82506 15.4035C3.58142 13.9639 2.9313 12.1056 3.00633 10.2047C3.08136 8.30382 3.87593 6.50248 5.22916 5.16542C6.58238 3.82836 8.39314 3.05549 10.2948 3.00331C12.1964 2.95114 14.0468 3.62355 15.4714 4.88439C16.8959 6.14524 17.788 7.9003 17.9672 9.7942C18.1463 11.6881 17.5991 13.5793 16.4362 15.0849ZM10.5002 15.9999C11.9589 15.9999 13.3579 15.4204 14.3893 14.389C15.4208 13.3575 16.0002 11.9586 16.0002 10.4999C16.0002 9.04122 15.4208 7.64227 14.3893 6.61082C13.3579 5.57937 11.9589 4.99991 10.5002 4.99991C9.04155 4.99991 7.64261 5.57937 6.61116 6.61082C5.57971 7.64227 5.00024 9.04122 5.00024 10.4999C5.00024 11.9586 5.57971 13.3575 6.61116 14.389C7.64261 15.4204 9.04155 15.9999 10.5002 15.9999Z" fill="white"/>
</svg>
