<svg width="29" height="27" viewBox="0 0 29 27" fill="none" xmlns="http://www.w3.org/2000/svg">
<path d="M28.091 10.2097C27.9466 9.77633 27.6093 9.48744 27.176 9.39103L19.1817 7.70534L15.281 0.626154C15.0885 0.240849 14.6548 0 14.2215 0C13.7882 0 13.4029 0.240858 13.1621 0.626154L9.26137 7.70534L1.31552 9.39103C0.882173 9.48744 0.544914 9.77634 0.400432 10.2097C0.25595 10.643 0.400433 11.0763 0.689327 11.4136L6.22729 17.1445L5.21581 25.1868C5.16777 25.6202 5.36026 26.0535 5.69753 26.2944C6.03479 26.5352 6.51616 26.5833 6.90147 26.3908L14.2699 22.9717L21.59 26.3911C21.7345 26.4875 21.9273 26.4875 22.1198 26.4875C22.3606 26.4875 22.6015 26.3911 22.842 26.2467C23.1793 26.0058 23.3717 25.5725 23.3237 25.1391L22.3122 17.0968L27.8502 11.3659C28.1394 11.0767 28.2355 10.6434 28.091 10.2097V10.2097ZM20.1452 15.8925C19.9043 16.1333 19.7599 16.5186 19.8079 16.8555L20.5785 23.2605L14.7513 20.5153C14.6068 20.4189 14.414 20.4189 14.2215 20.4189C14.029 20.4189 13.8842 20.467 13.6918 20.5153L7.8645 23.2605L8.63511 16.8555C8.68314 16.4702 8.5387 16.1333 8.29784 15.8925L3.96407 11.3176L10.369 9.96914C10.7063 9.87273 10.9952 9.68025 11.1877 9.39135L14.2698 3.66015L17.3999 9.34259C17.5923 9.63149 17.8816 9.87234 18.2185 9.92038L24.5755 11.3175L20.1452 15.8925Z" fill="#27AE60"/>
</svg>
